<svg width="180" height="32" viewBox="0 0 180 32" fill="none" xmlns="http://www.w3.org/2000/svg">
<path d="M22.9717 9.0155C20.1481 10.3519 17.5824 12.3094 15.4673 14.8003C15.6844 15.8701 15.8521 16.9614 15.9533 18.077C16.3922 22.9226 15.6463 27.5965 13.9734 31.7872H18.3152C19.7934 30.0355 21.0512 28.0241 22.0128 25.7713C24.3562 20.2808 24.5499 14.347 22.9717 9.0155Z" fill="#86C240"/>
<path d="M5.17321 0C1.42567 5.41574 -0.52817 12.2408 0.12407 19.4405C0.535464 23.9819 1.94019 28.1679 4.08745 31.7871H11.637C13.3099 27.5963 14.0558 22.9225 13.6168 18.0769C12.9645 10.8771 9.8207 4.56741 5.17321 0Z" fill="#86C240"/>
<path d="M15.6191 10.559C17.3642 10.559 18.7788 9.0757 18.7788 7.24588C18.7788 5.41614 17.3642 3.93274 15.6191 3.93274C13.874 3.93274 12.4595 5.41614 12.4595 7.24588C12.4595 9.0757 13.874 10.559 15.6191 10.559Z" fill="#86C240"/>
<path d="M47.0373 22.3183H50.9909V28.9145C49.2449 30.9716 46.8272 32 43.7383 32C41.1528 32 38.9829 31.0957 37.2286 29.2871C35.4741 27.4785 34.5969 25.1954 34.5969 22.4379C34.5969 19.6808 35.4907 17.38 37.2787 15.5358C39.0667 13.692 41.2241 12.7697 43.7508 12.7697C46.2774 12.7697 48.4725 13.6474 50.336 15.4028L48.2964 18.5149C47.5073 17.7879 46.7811 17.287 46.118 17.0122C45.4549 16.7374 44.7372 16.5998 43.9651 16.5998C42.4707 16.5998 41.2117 17.1363 40.1876 18.2089C39.1632 19.2819 38.6513 20.6961 38.6513 22.4514C38.6513 24.2067 39.1423 25.6119 40.1244 26.6669C41.1066 27.7219 42.2776 28.2494 43.6375 28.2494C44.9974 28.2494 46.1308 27.9746 47.0373 27.425V22.3183ZM61.2402 20.9885C60.1153 20.9885 59.2758 21.4099 58.722 22.252C58.1679 23.094 57.891 24.2068 57.891 25.5898V31.7871H54.1135V17.4775H57.891V19.3659C58.3777 18.781 58.9862 18.2846 59.7166 17.8767C60.4468 17.4689 61.1898 17.2563 61.9454 17.2383L61.9706 20.9885H61.2402V20.9885ZM76.1986 29.7123C74.6708 31.2375 72.8786 32 70.822 32C68.7653 32 67.0657 31.3308 65.7225 29.992C64.3794 28.6532 63.7081 26.8577 63.7081 24.6057C63.7081 22.3539 64.3921 20.563 65.7605 19.2332C67.1285 17.9033 68.7444 17.2383 70.6079 17.2383C72.4715 17.2383 74.0536 17.8325 75.3549 19.0202C76.6558 20.2083 77.3065 21.8396 77.3065 23.9143V26.042H67.4349C67.5524 26.8225 67.9386 27.4606 68.5935 27.957C69.2481 28.4534 69.9867 28.7016 70.8095 28.7016C72.1357 28.7016 73.2269 28.2318 74.0833 27.2919L76.1986 29.7123ZM72.5723 21.2281C72.0519 20.7669 71.418 20.5364 70.6711 20.5364C69.9239 20.5364 69.2399 20.7759 68.6187 21.2547C67.9975 21.7334 67.6365 22.3805 67.5357 23.196H73.4789C73.3948 22.3449 73.0927 21.6892 72.5723 21.2281ZM91.7613 29.7123C90.2336 31.2375 88.4414 32 86.3847 32C84.3281 32 82.6284 31.3308 81.2853 29.992C79.9421 28.6532 79.2708 26.8577 79.2708 24.6057C79.2708 22.3539 79.9549 20.563 81.3232 19.2332C82.6913 17.9033 84.3071 17.2383 86.1707 17.2383C88.0342 17.2383 89.6163 17.8325 90.9176 19.0202C92.2186 20.2083 92.8692 21.8396 92.8692 23.9143V26.042H82.9976C83.1151 26.8225 83.5013 27.4606 84.1562 27.957C84.8108 28.4534 85.5495 28.7016 86.3723 28.7016C87.6984 28.7016 88.7896 28.2318 89.6461 27.2919L91.7613 29.7123ZM88.135 21.2281C87.6147 20.7669 86.9807 20.5364 86.2338 20.5364C85.4866 20.5364 84.8026 20.7759 84.1814 21.2547C83.5602 21.7334 83.1992 22.3805 83.0985 23.196H89.0416C88.9575 22.3449 88.6554 21.6892 88.135 21.2281ZM99.3665 23.8078V31.7871H95.589V17.4775H99.3665V19.0735C100.508 17.8501 101.792 17.2383 103.219 17.2383C104.646 17.2383 105.842 17.7703 106.808 18.8343C107.773 19.8983 108.256 21.3166 108.256 23.0896V31.7871H104.478V23.7014C104.478 21.5029 103.714 20.4033 102.187 20.4033C101.431 20.4033 100.772 20.6916 100.21 21.2678C99.6476 21.8441 99.3665 22.6906 99.3665 23.8078ZM121.879 27.332C121.879 28.7417 121.388 29.8724 120.406 30.7234C119.424 31.5745 118.177 32 116.667 32C115.659 32 114.61 31.8092 113.519 31.4283C112.428 31.047 111.445 30.4839 110.572 29.739L112.235 27.239C113.644 28.3915 115.147 28.9677 116.742 28.9677C117.229 28.9677 117.615 28.8657 117.9 28.6618C118.186 28.4579 118.329 28.1875 118.329 27.8505C118.329 27.5138 118.131 27.2034 117.737 26.9196C117.342 26.6361 116.771 26.37 116.024 26.1218C115.277 25.8736 114.706 25.661 114.312 25.4837C113.917 25.3063 113.468 25.0491 112.965 24.7121C111.941 24.0384 111.429 23.0411 111.429 21.7199C111.429 20.3988 111.932 19.3217 112.939 18.4882C113.947 17.6551 115.248 17.2383 116.843 17.2383C118.438 17.2383 120.032 17.8058 121.628 18.9404L120.217 21.6C119.042 20.749 117.871 20.3234 116.704 20.3234C115.537 20.3234 114.954 20.6605 114.954 21.3342C114.954 21.7068 115.139 21.9993 115.508 22.2119C115.877 22.4248 116.49 22.673 117.346 22.9568C118.203 23.2406 118.811 23.4577 119.172 23.6084C119.533 23.7591 119.965 23.9942 120.469 24.3132C121.409 24.9161 121.879 25.9223 121.879 27.332ZM129.182 20.35V26.7602C129.182 27.3099 129.316 27.7399 129.585 28.0503C129.853 28.3607 130.172 28.5156 130.542 28.5156C131.247 28.5156 131.843 28.1789 132.33 27.5048L133.74 30.2975C132.565 31.4327 131.327 32 130.026 32C128.724 32 127.625 31.5478 126.727 30.6435C125.828 29.7392 125.379 28.5066 125.379 26.9462V20.35H123.793V17.4775H125.379V13.1953H129.182V17.4775H132.456V20.35H129.182ZM147.263 31.7871H143.712V30.0584C142.738 31.3529 141.534 32 140.099 32C138.663 32 137.458 31.5613 136.485 30.6833C135.511 29.8057 135.024 28.6352 135.024 27.1723C135.024 25.7094 135.528 24.6147 136.535 23.8877C137.542 23.1607 138.919 22.7971 140.665 22.7971H143.486V22.7172C143.486 21.1924 142.722 20.4299 141.194 20.4299C140.539 20.4299 139.847 20.5675 139.116 20.8423C138.386 21.1171 137.769 21.4583 137.266 21.8662L135.578 19.2861C137.358 17.921 139.389 17.2383 141.672 17.2383C143.317 17.2383 144.661 17.6728 145.701 18.5415C146.742 19.4105 147.263 20.7846 147.263 22.664V31.7871ZM143.46 26.3344V25.643H141.093C139.582 25.643 138.827 26.1397 138.827 27.1325C138.827 27.6469 139.007 28.0413 139.368 28.3161C139.729 28.5909 140.245 28.7282 140.917 28.7282C141.588 28.7282 142.18 28.5111 142.692 28.0766C143.204 27.6424 143.46 27.0617 143.46 26.3344ZM154.49 23.8078V31.7871H150.713V17.4775H154.49V19.0735C155.632 17.8501 156.916 17.2383 158.343 17.2383C159.77 17.2383 160.966 17.7703 161.931 18.8343C162.897 19.8983 163.38 21.3166 163.38 23.0896V31.7871H159.602V23.7014C159.602 21.5029 158.838 20.4033 157.31 20.4033C156.555 20.4033 155.896 20.6916 155.334 21.2678C154.771 21.8441 154.49 22.6906 154.49 23.8078ZM172.231 32C170.628 32 169.196 31.282 167.937 29.8457C166.678 28.4094 166.049 26.6275 166.049 24.4995C166.049 22.3716 166.662 20.6294 167.887 19.2729C169.113 17.9165 170.548 17.2383 172.193 17.2383C173.839 17.2383 175.182 17.8501 176.222 19.0735V12.0518H180V31.7871H176.222V29.8986C175.165 31.2997 173.834 32 172.231 32ZM169.851 24.6589C169.851 25.8114 170.179 26.7558 170.833 27.4917C171.488 28.2276 172.252 28.5954 173.125 28.5954C173.998 28.5954 174.741 28.2276 175.354 27.4917C175.966 26.7558 176.273 25.8072 176.273 24.6457C176.273 23.4843 175.966 22.5181 175.354 21.7466C174.741 20.9754 173.99 20.5896 173.1 20.5896C172.21 20.5896 171.446 20.9798 170.808 21.76C170.17 22.5402 169.851 23.5064 169.851 24.6589Z" fill="#222629"/>
</svg>
