<svg width="278" height="44" viewBox="0 0 278 44" fill="none" xmlns="http://www.w3.org/2000/svg">
<path d="M9.09023 43.357V20.9979H0.166992V14.5332H26.1898V20.9979H17.308V43.357H9.09023Z" fill="#ffffff"/>
<path d="M28.4307 43.3569V21.0389H35.9429V27.5447L34.8222 25.6917C35.4862 24.0176 36.5655 22.7617 38.0594 21.9239C39.5532 21.0869 41.3657 20.668 43.4967 20.668V27.7092C43.1367 27.6544 42.825 27.6201 42.5624 27.6064C42.2991 27.5927 42.0159 27.5858 41.7119 27.5858C40.1067 27.5858 38.8071 28.0184 37.8107 28.8829C36.8142 29.7481 36.3168 31.1548 36.3168 33.1038V43.3569H28.4307Z" fill="#ffffff"/>
<path d="M58.3135 43.7266C55.6575 43.7266 53.3399 43.2262 51.3616 42.2231C49.3834 41.2216 47.8473 39.8491 46.7549 38.1058C45.661 36.3632 45.1152 34.3791 45.1152 32.1552C45.1152 29.932 45.6472 27.9487 46.7127 26.2046C47.7782 24.4612 49.2514 23.1032 51.1329 22.1276C53.0144 21.1535 55.1308 20.666 57.4829 20.666C59.6961 20.666 61.7166 21.1123 63.5428 22.0042C65.3691 22.8968 66.8215 24.2076 67.9008 25.9372C68.9794 27.6669 69.519 29.7667 69.519 32.2367C69.519 32.5116 69.5044 32.8277 69.4768 33.1841C69.4492 33.5413 69.4215 33.8704 69.3947 34.1727H51.5896V30.0546H65.2025L62.214 31.2077C62.2409 30.1925 62.0543 29.3135 61.6544 28.5725C61.2529 27.8314 60.6994 27.2549 59.9939 26.8428C59.2885 26.4308 58.4648 26.2251 57.5244 26.2251C56.5832 26.2251 55.7603 26.4308 55.0548 26.8428C54.3494 27.2549 53.8028 27.8383 53.4151 28.593C53.0275 29.3486 52.834 30.2336 52.834 31.2488V32.4431C52.834 33.5406 53.0628 34.4888 53.5195 35.2839C53.9763 36.0806 54.6326 36.6914 55.4901 37.1156C56.3476 37.5422 57.3716 37.7539 58.5615 37.7539C59.6677 37.7539 60.6165 37.597 61.4041 37.2809C62.1925 36.9656 62.9748 36.4774 63.7493 35.8186L67.9 40.1012C66.8207 41.2817 65.4927 42.1805 63.9159 42.7981C62.3391 43.4174 60.4714 43.7266 58.3135 43.7266Z" fill="#ffffff"/>
<path d="M84.9581 43.7266C82.302 43.7266 79.9844 43.2262 78.0062 42.2231C76.0279 41.2216 74.4919 39.8491 73.3995 38.1058C72.3056 36.3632 71.7598 34.3791 71.7598 32.1552C71.7598 29.932 72.2918 27.9487 73.3573 26.2046C74.4228 24.4612 75.8959 23.1032 77.7774 22.1276C79.659 21.1535 81.7754 20.666 84.1275 20.666C86.3406 20.666 88.3611 21.1123 90.1874 22.0042C92.0136 22.8968 93.466 24.2076 94.5453 25.9372C95.6239 27.6669 96.1636 29.7667 96.1636 32.2367C96.1636 32.5116 96.149 32.8277 96.1213 33.1841C96.0937 33.5413 96.0661 33.8704 96.0392 34.1727H78.2342V30.0546H91.847L88.8585 31.2077C88.8854 30.1925 88.6989 29.3135 88.2989 28.5725C87.8974 27.8314 87.344 27.2549 86.6385 26.8428C85.933 26.4308 85.1093 26.2251 84.1689 26.2251C83.2278 26.2251 82.4049 26.4308 81.6994 26.8428C80.9939 27.2549 80.4473 27.8383 80.0597 28.593C79.672 29.3486 79.4785 30.2336 79.4785 31.2488V32.4431C79.4785 33.5406 79.7073 34.4888 80.1641 35.2839C80.6208 36.0806 81.2772 36.6914 82.1346 37.1156C82.9921 37.5422 84.0162 37.7539 85.206 37.7539C86.3122 37.7539 87.261 37.597 88.0487 37.2809C88.837 36.9656 89.6193 36.4774 90.3939 35.8186L94.5446 40.1012C93.4652 41.2817 92.1372 42.1805 90.5604 42.7981C88.9837 43.4174 87.116 43.7266 84.9581 43.7266Z" fill="#ffffff"/>
<path d="M97.4492 27.7088V21.8618H113.76V27.7088H97.4492ZM109.859 43.7273C106.981 43.7273 104.74 43.0205 103.135 41.607C101.53 40.1934 100.728 38.0593 100.728 35.204V16.0566H108.613V35.1217C108.613 35.9184 108.834 36.5421 109.277 36.9953C109.719 37.4485 110.287 37.6754 110.979 37.6754C111.92 37.6754 112.723 37.4424 113.387 36.9755L115.337 42.4516C114.673 42.8911 113.856 43.2132 112.888 43.4196C111.92 43.626 110.91 43.7273 109.859 43.7273Z" fill="#ffffff"/>
<path d="M118.366 43.3569V21.0389H125.878V27.5447L124.758 25.6917C125.422 24.0176 126.501 22.7617 127.995 21.9239C129.489 21.0869 131.301 20.668 133.432 20.668V27.7092C133.072 27.6544 132.761 27.6201 132.498 27.6064C132.235 27.5927 131.951 27.5858 131.647 27.5858C130.042 27.5858 128.743 28.0184 127.746 28.8829C126.75 29.7481 126.252 31.1548 126.252 33.1038V43.3569H118.366Z" fill="#ffffff"/>
<path d="M142.397 43.7278C140.598 43.7278 139.077 43.4254 137.832 42.8222C136.587 42.219 135.64 41.3949 134.989 40.3515C134.338 39.3088 134.014 38.1427 134.014 36.8518C134.014 35.4786 134.366 34.292 135.072 33.2897C135.778 32.2874 136.863 31.5189 138.33 30.9835C139.796 30.448 141.692 30.1807 144.015 30.1807H149.328V34.2577H145.095C143.822 34.2577 142.929 34.4633 142.418 34.8754C141.905 35.2874 141.65 35.8365 141.65 36.5228C141.65 37.209 141.913 37.7574 142.438 38.1694C142.963 38.5814 143.683 38.7878 144.597 38.7878C145.454 38.7878 146.236 38.5754 146.942 38.1488C147.647 37.7239 148.166 37.0719 148.498 36.1937L149.577 39.0757C149.162 40.6142 148.353 41.7727 147.149 42.5549C145.946 43.3363 144.362 43.7278 142.397 43.7278ZM149.037 43.3569V39.1976L148.498 38.1679V30.5097C148.498 29.2744 148.118 28.3208 147.357 27.6483C146.596 26.9758 145.386 26.6391 143.726 26.6391C142.647 26.6391 141.554 26.8113 140.447 27.154C139.34 27.4975 138.399 27.9712 137.625 28.5744L134.969 23.2621C136.241 22.4388 137.77 21.8005 139.555 21.3473C141.339 20.8942 143.117 20.668 144.888 20.668C148.541 20.668 151.369 21.4981 153.375 23.1593C155.381 24.8204 156.385 27.4213 156.385 30.9621V43.3569H149.037Z" fill="#ffffff"/>
<path d="M173.151 43.727C170.661 43.727 168.44 43.2335 166.49 42.2449C164.539 41.2563 163.01 39.8914 161.903 38.1473C160.797 36.4047 160.243 34.4077 160.243 32.1564C160.243 29.9058 160.797 27.9149 161.903 26.186C163.009 24.4563 164.539 23.1052 166.49 22.1295C168.44 21.1554 170.661 20.668 173.151 20.668C175.696 20.668 177.896 21.2034 179.75 22.2735C181.603 23.3443 182.918 24.8539 183.693 26.8029L177.592 29.8913C177.066 28.8486 176.416 28.0862 175.642 27.6064C174.866 27.1266 174.023 26.8859 173.11 26.8859C172.196 26.8859 171.366 27.0923 170.62 27.5036C169.873 27.9156 169.285 28.5127 168.856 29.2949C168.426 30.0771 168.212 31.0314 168.212 32.1564C168.212 33.3095 168.426 34.2843 168.856 35.0802C169.285 35.8769 169.873 36.4801 170.62 36.8922C171.367 37.3034 172.197 37.5098 173.11 37.5098C174.023 37.5098 174.866 37.2707 175.642 36.7893C176.416 36.3095 177.066 35.5479 177.592 34.5045L183.693 37.5929C182.918 39.5426 181.603 41.0514 179.75 42.1223C177.895 43.1908 175.696 43.727 173.151 43.727Z" fill="#ffffff"/>
<path d="M186.597 43.3562V12.8027H194.482V43.3569L186.597 43.3562ZM193.154 39.2388L193.362 29.8914L202.534 21.0382H211.873L201.704 31.4565L197.679 34.6683L193.154 39.2388ZM203.115 43.3562L196.225 34.7909L201.123 28.7786L212.661 43.3562H203.115Z" fill="#ffffff"/>
<path d="M225.859 43.7266C223.203 43.7266 220.886 43.2262 218.908 42.2231C216.929 41.2216 215.393 39.8491 214.301 38.1058C213.207 36.3632 212.661 34.3791 212.661 32.1552C212.661 29.932 213.193 27.9487 214.259 26.2046C215.324 24.4612 216.797 23.1032 218.679 22.1276C220.56 21.1535 222.677 20.666 225.029 20.666C227.242 20.666 229.262 21.1123 231.089 22.0042C232.915 22.8968 234.367 24.2076 235.447 25.9372C236.525 27.6669 237.065 29.7667 237.065 32.2367C237.065 32.5116 237.05 32.8277 237.023 33.1841C236.995 33.5413 236.967 33.8704 236.941 34.1727H219.136V30.0546H232.748L229.76 31.2077C229.787 30.1925 229.6 29.3135 229.2 28.5725C228.799 27.8314 228.245 27.2549 227.54 26.8428C226.834 26.4308 226.011 26.2251 225.07 26.2251C224.129 26.2251 223.306 26.4308 222.601 26.8428C221.895 27.2549 221.349 27.8383 220.961 28.593C220.573 29.3486 220.38 30.2336 220.38 31.2488V32.4431C220.38 33.5406 220.609 34.4888 221.065 35.2839C221.522 36.0806 222.179 36.6914 223.036 37.1156C223.893 37.5422 224.918 37.7539 226.107 37.7539C227.214 37.7539 228.162 37.597 228.95 37.2809C229.738 36.9656 230.521 36.4774 231.295 35.8186L235.446 40.1012C234.367 41.2817 233.039 42.1805 231.462 42.7981C229.885 43.4174 228.017 43.7266 225.859 43.7266Z" fill="#ffffff"/>
<path d="M240.716 43.3569V21.0389H248.228V27.5447L247.107 25.6917C247.771 24.0176 248.851 22.7617 250.345 21.9239C251.838 21.0869 253.651 20.668 255.782 20.668V27.7092C255.422 27.6544 255.11 27.6201 254.848 27.6064C254.584 27.5927 254.301 27.5858 253.997 27.5858C252.392 27.5858 251.092 28.0184 250.096 28.8829C249.099 29.7481 248.602 31.1548 248.602 33.1038V43.3569H240.716Z" fill="#ffffff"/>
<path d="M269.301 15.5339C266.793 18.1295 263.663 19.9064 260.213 20.8805L254.196 16.3382C254.877 12.7083 256.527 9.33199 259.204 6.56347C263.182 2.44611 268.72 0.388195 274.614 0.324219C275 5.9694 273.278 11.4166 269.301 15.5339Z" fill="#86C240"/>
<path d="M269.301 15.5339C266.793 18.1295 263.663 19.9064 260.213 20.8805L254.196 16.3382C254.877 12.7083 256.527 9.33199 259.204 6.56347C263.182 2.44611 268.72 0.388195 274.614 0.324219C275 5.9694 273.278 11.4166 269.301 15.5339Z" fill="#86C240"/>
<path d="M277.614 23.8273C275.205 26.9012 271.877 28.9835 268.076 29.4161C265.52 29.7071 263.054 29.2166 260.841 28.1115L260.839 23.1213C262.747 21.7001 264.955 20.7709 267.352 20.4975C271.152 20.0626 274.754 21.3513 277.614 23.8273Z" fill="#86C240"/>
<path d="M277.614 23.8273C275.205 26.9012 271.877 28.9835 268.076 29.4161C265.52 29.7071 263.054 29.2166 260.841 28.1115L260.839 23.1213C262.747 21.7001 264.955 20.7709 267.352 20.4975C271.152 20.0626 274.754 21.3513 277.614 23.8273Z" fill="#86C240"/>
<path d="M247.463 7.27344C249.408 8.35952 250.867 10.0435 251.431 12.1281C251.811 13.531 251.739 14.9499 251.298 16.2759L248.467 16.6963C247.502 15.7496 246.789 14.595 246.433 13.2804C245.871 11.1958 246.299 9.07621 247.463 7.27344Z" fill="#86C240"/>
<path d="M247.463 7.27344C249.408 8.35952 250.867 10.0435 251.431 12.1281C251.811 13.531 251.739 14.9499 251.298 16.2759L248.467 16.6963C247.502 15.7496 246.789 14.595 246.433 13.2804C245.871 11.1958 246.299 9.07621 247.463 7.27344Z" fill="#86C240"/>
</svg>
