<svg width="24" height="24" viewBox="0 0 24 24" fill="none" xmlns="http://www.w3.org/2000/svg">
<path d="M12 0C5.4 0 0 5.4 0 12C0 18.6 5.4 24 12 24C18.6 24 24 18.6 24 12C24 5.4 18.6 0 12 0ZM19.32 5.76C18.72 6 18.12 6.24 17.4 6.48C17.16 5.28 16.8 4.32 16.32 3.36C17.4 3.96 18.48 4.8 19.32 5.76ZM15.6 12C15.6 12.96 15.6 13.8 15.48 14.64C14.4 14.52 13.2 14.4 12 14.4C10.8 14.4 9.6 14.52 8.52 14.64C8.4 13.8 8.4 12.96 8.4 12C8.4 11.04 8.4 10.2 8.52 9.36C9.6 9.48 10.8 9.6 12 9.6C13.2 9.6 14.4 9.48 15.48 9.36C15.6 10.2 15.6 11.04 15.6 12ZM12 21.6C11.04 21.6 9.72 19.92 9 17.04C9.96 16.92 10.92 16.8 12 16.8C13.08 16.8 14.04 16.92 15 17.04C14.28 19.92 12.96 21.6 12 21.6ZM2.4 12C2.4 10.56 2.76 9.12 3.36 7.8C4.2 8.28 5.16 8.52 6.24 8.88C6.12 9.84 6 10.92 6 12C6 13.08 6.12 14.16 6.24 15.12C5.16 15.36 4.2 15.72 3.36 16.2C2.76 14.88 2.4 13.44 2.4 12ZM12 7.2C10.92 7.2 9.96 7.08 9 6.96C9.72 4.08 11.04 2.4 12 2.4C12.96 2.4 14.28 4.08 15 6.96C14.04 7.08 13.08 7.2 12 7.2ZM7.68 3.36C7.32 4.32 6.96 5.4 6.6 6.48C5.88 6.36 5.28 6.12 4.68 5.76C5.52 4.8 6.6 3.96 7.68 3.36ZM4.68 18.24C5.28 18 5.88 17.76 6.6 17.52C6.84 18.72 7.2 19.68 7.68 20.64C6.6 20.04 5.52 19.2 4.68 18.24ZM16.32 20.64C16.8 19.8 17.16 18.72 17.4 17.52C18.12 17.76 18.84 18 19.32 18.24C18.48 19.2 17.4 20.04 16.32 20.64ZM20.64 16.2C19.8 15.72 18.84 15.48 17.76 15.12C17.88 14.16 18 13.08 18 12C18 10.92 17.88 9.84 17.76 8.88C18.84 8.64 19.8 8.28 20.64 7.8C21.24 9.12 21.6 10.56 21.6 12C21.6 13.44 21.24 14.88 20.64 16.2Z" fill="#474B4F"/>
</svg>
