<svg width="52" height="52" viewBox="0 0 52 52" fill="none" xmlns="http://www.w3.org/2000/svg">
<g filter="url(#filter0_b_8176_30735)">
<rect width="52" height="52" rx="16" fill="#474B4F" fill-opacity="0.6"/>
<path d="M23.22 27.36L19 31.58V30C19 29.46 18.56 29 18 29C17.46 29 17 29.46 17 30V34C17 34.26 17.1 34.52 17.3 34.7C17.48 34.88 17.74 35 18 35H22C22.56 35 23 34.56 23 34C23 33.44 22.56 33 22 33H20.42L24.64 28.78C24.82 28.6 24.94 28.34 24.94 28.08C24.94 27.82 24.84 27.56 24.64 27.38C24.26 26.96 23.62 26.96 23.22 27.36Z" fill="white"/>
<path d="M20.42 19.08H22C22.56 19.08 23 18.64 23 18.08C23 17.82 22.9 17.56 22.7 17.38C22.52 17.2 22.26 17.08 22 17.08H18C17.74 17.08 17.48 17.18 17.3 17.38C17.1 17.56 17 17.8 17 18.08V22.08C17 22.64 17.44 23.08 18 23.08C18.56 23.08 19 22.64 19 22.08V20.5L23.26 24.78C23.44 24.96 23.7 25.08 23.96 25.08C24.22 25.08 24.48 24.98 24.66 24.78C24.84 24.6 24.96 24.34 24.96 24.08C24.96 23.82 24.86 23.56 24.66 23.38L20.42 19.08Z" fill="white"/>
<path d="M34 29C33.44 29 33 29.44 33 30V31.58L28.78 27.4C28.6 27.22 28.34 27.1 28.06 27.1C27.78 27.1 27.54 27.2 27.34 27.4C27.16 27.58 27.04 27.84 27.04 28.1C27.04 28.36 27.14 28.62 27.32 28.8L31.5 33H29.92C29.36 33 28.92 33.44 28.92 34C28.92 34.26 29.02 34.52 29.22 34.7C29.4 34.88 29.66 35 29.92 35H33.92C34.2 35 34.5 34.88 34.68 34.7C34.8 34.58 35.02 34.32 35.02 34V30C35 29.44 34.56 29 34 29Z" fill="white"/>
<path d="M27.98 25.02C28.24 25.02 28.5 24.92 28.68 24.72L33 20.42V22C33 22.56 33.44 23 34 23C34.56 23 35 22.56 35 22V18C35 17.74 34.9 17.48 34.7 17.3C34.52 17.1 34.26 17 34 17H30C29.44 17 29 17.44 29 18C29 18.56 29.44 19 30 19H31.58L27.28 23.32C27.1 23.5 26.98 23.76 26.98 24.02C26.98 24.28 27.08 24.54 27.28 24.72C27.46 24.92 27.72 25.02 27.98 25.02Z" fill="white"/>
</g>
<defs>
<filter id="filter0_b_8176_30735" x="-30" y="-30" width="112" height="112" filterUnits="userSpaceOnUse" color-interpolation-filters="sRGB">
<feFlood flood-opacity="0" result="BackgroundImageFix"/>
<feGaussianBlur in="BackgroundImage" stdDeviation="15"/>
<feComposite in2="SourceAlpha" operator="in" result="effect1_backgroundBlur_8176_30735"/>
<feBlend mode="normal" in="SourceGraphic" in2="effect1_backgroundBlur_8176_30735" result="shape"/>
</filter>
</defs>
</svg>
