<svg width="19" height="18" fill="none" xmlns="http://www.w3.org/2000/svg"><path d="M6.22 10.36 2 14.58V13c0-.54-.44-1-1-1-.54 0-1 .46-1 1v4c0 .26.1.52.3.7.18.18.44.3.7.3h4c.56 0 1-.44 1-1s-.44-1-1-1H3.42l4.22-4.22c.18-.18.3-.44.3-.7 0-.26-.1-.52-.3-.7-.38-.41995-1.02-.41995-1.42-.02ZM3.42 2.08008H5c.56 0 1-.44 1-1 0-.260002-.1-.520002-.3-.700002-.18-.18-.44-.2999999-.7-.2999999H1c-.26 0-.52.0999999-.7.2999999-.2.18-.3.42-.3.700002v4c0 .56.44 1 1 1s1-.44 1-1v-1.58l4.26 4.28c.18.18.44.3.7.3.26 0 .52-.1.7-.3.18-.18.3-.44.3-.7 0-.26-.1-.52-.3-.7l-4.24-4.3ZM17 12.0001c-.56 0-1 .44-1 1v1.58l-4.22-4.18c-.18-.18-.44-.3-.72-.3-.28 0-.52.1-.72.3-.18.18-.3.44-.3.7 0 .26.1.52.28.7l4.18 4.2h-1.58c-.56 0-1 .44-1 1 0 .26.1.52.3.7.18.18.44.3.7.3h4c.28 0 .58-.12.76-.3.12-.12.34-.38.34-.7v-4c-.02-.56-.46-1-1.02-1ZM10.9805 8.02c.26 0 .52-.1.7-.3l4.32-4.3V5c0 .56.44 1 1 1s1-.44 1-1V1c0-.26-.1-.52-.3-.7-.18-.2-.44-.3-.7-.3h-4c-.56 0-1 .44-1 1s.44 1 1 1h1.58l-4.3 4.32c-.18.18-.30003.44-.30003.7 0 .26.10003.52.30003.7.18.2.44.3.7.3Z" fill="#fff"/></svg>

