<svg width="487" height="262" viewBox="0 0 487 262" fill="none" xmlns="http://www.w3.org/2000/svg">
<path d="M319.527 58.7726L329.806 39.4929C333.222 33.0858 338.216 27.6566 344.317 23.7193L346.183 22.5149C350.566 19.6864 355.551 17.926 360.738 17.3754V17.3754C365.739 16.8444 370.795 17.452 375.527 19.1527L380.539 20.9534L402.364 30.5979C410.802 34.3267 420.108 35.6483 429.251 34.4162L439.673 33.0117L454.058 26.8405C459.75 24.3987 464.938 20.9206 469.36 16.5833L486.136 0.125488L486.136 262H0.978516L65.6233 182.644L84.3962 162.912L92.4955 155.603C100.636 148.257 110.967 143.79 121.895 142.891L138.368 141.536L151.04 142.084L162.773 142.633L191.871 143.181L218.225 142.7C220.677 142.655 223.122 142.43 225.541 142.026L241.988 139.282C246.106 138.595 250.122 137.395 253.942 135.71L263.513 131.487C267.362 129.789 270.981 127.612 274.284 125.008L281.052 119.673C285.702 116.008 289.664 111.546 292.753 106.495L304.508 87.274L319.527 58.7726Z" fill="#E0E0E0"/>
<defs>
<linearGradient id="paint0_linear_2782_12653" x1="109" y1="-427" x2="512.633" y2="612.744" gradientUnits="userSpaceOnUse">
<stop offset="0.0413536" stop-color="#E0E0E0"/>
<stop offset="0.60982" stop-color="#E0E0E0" stop-opacity="0"/>
</linearGradient>
</defs>
</svg>
