<svg width="68" height="77" viewBox="0 0 68 77" fill="none" xmlns="http://www.w3.org/2000/svg">
<path fill-rule="evenodd" clip-rule="evenodd" d="M45.4435 66.9194C58.5914 62.221 68 49.6559 68 34.8932C68 16.1156 52.7777 0.89325 34 0.89325C15.2223 0.89325 0 16.1156 0 34.8932C0 50.7473 10.8512 64.0669 25.5318 67.8303L33.0523 75.3508C34.1458 76.4443 35.9186 76.4443 37.0121 75.3508L45.4435 66.9194Z" fill="white"/>
<mask id="path-2-inside-1_2497_9322" fill="white">
<path fill-rule="evenodd" clip-rule="evenodd" d="M44.4275 64.5706C56.6558 60.2008 65.4063 48.5144 65.4063 34.7843C65.4063 17.3199 51.2486 3.16223 33.7842 3.16223C16.3198 3.16223 2.16211 17.3199 2.16211 34.7843C2.16211 49.5296 12.2545 61.9178 25.9083 65.4178L32.7644 72.2739C33.8579 73.3674 35.6307 73.3673 36.7242 72.2739L44.4275 64.5706Z"/>
</mask>
<path fill-rule="evenodd" clip-rule="evenodd" d="M44.4275 64.5706C56.6558 60.2008 65.4063 48.5144 65.4063 34.7843C65.4063 17.3199 51.2486 3.16223 33.7842 3.16223C16.3198 3.16223 2.16211 17.3199 2.16211 34.7843C2.16211 49.5296 12.2545 61.9178 25.9083 65.4178L32.7644 72.2739C33.8579 73.3674 35.6307 73.3673 36.7242 72.2739L44.4275 64.5706Z" fill="white"/>
<path d="M44.4275 64.5706L43.4179 61.7456C42.9998 61.895 42.6201 62.1354 42.3061 62.4493L44.4275 64.5706ZM25.9083 65.4178L28.0297 63.2965C27.6495 62.9163 27.1741 62.6453 26.6533 62.5118L25.9083 65.4178ZM32.7644 72.2739L30.6431 74.3952L32.7644 72.2739ZM62.4063 34.7843C62.4063 47.2072 54.4903 57.7888 43.4179 61.7456L45.437 67.3957C58.8213 62.6127 68.4063 49.8217 68.4063 34.7843H62.4063ZM33.7842 6.16223C49.5918 6.16223 62.4063 18.9768 62.4063 34.7843H68.4063C68.4063 15.6631 52.9055 0.162231 33.7842 0.162231V6.16223ZM5.16211 34.7843C5.16211 18.9768 17.9767 6.16223 33.7842 6.16223V0.162231C14.663 0.162231 -0.837891 15.6631 -0.837891 34.7843H5.16211ZM26.6533 62.5118C14.2942 59.3436 5.16211 48.1266 5.16211 34.7843H-0.837891C-0.837891 50.9326 10.2148 64.4919 25.1634 68.3239L26.6533 62.5118ZM34.8857 70.1526L28.0297 63.2965L23.787 67.5391L30.6431 74.3952L34.8857 70.1526ZM34.6029 70.1526C34.681 70.0745 34.8076 70.0745 34.8857 70.1526L30.6431 74.3952C32.9081 76.6603 36.5805 76.6602 38.8455 74.3952L34.6029 70.1526ZM42.3061 62.4493L34.6029 70.1526L38.8455 74.3952L46.5488 66.6919L42.3061 62.4493Z" fill="#86C232" mask="url(#path-2-inside-1_2497_9322)"/>
<path fill-rule="evenodd" clip-rule="evenodd" d="M30.1134 26.4368C33.1594 25.7963 35.4463 23.094 35.4463 19.8575C35.4463 16.1445 32.4362 13.1344 28.7231 13.1344C25.0101 13.1344 22 16.1445 22 19.8575C22 23.1088 24.3078 25.821 27.3746 26.4454C27.373 26.4727 27.3722 26.5002 27.3722 26.5279V31.0473C27.3722 31.8051 27.9865 32.4194 28.7443 32.4194C29.5021 32.4194 30.1164 31.8051 30.1164 31.0473V26.5279C30.1164 26.4973 30.1154 26.4669 30.1134 26.4368Z" fill="#86C232"/>
<path fill-rule="evenodd" clip-rule="evenodd" d="M40.9798 26.7889C43.8472 26.1865 46 23.6429 46 20.5965C46 17.1018 43.1671 14.2688 39.6724 14.2688C36.1777 14.2688 33.3447 17.1018 33.3447 20.5965C33.3447 23.6561 35.5162 26.2085 38.4021 26.7966C38.4006 26.8223 38.3998 26.8483 38.3998 26.8744V31.128C38.3998 31.8412 38.978 32.4194 39.6912 32.4194C40.4044 32.4194 40.9826 31.8412 40.9826 31.128V26.8744C40.9826 26.8457 40.9817 26.8172 40.9798 26.7889Z" fill="#86C232"/>
<mask id="path-6-outside-2_2497_9322" maskUnits="userSpaceOnUse" x="25.5381" y="11" width="17" height="24" fill="black">
<rect fill="white" x="25.5381" y="11" width="17" height="24"/>
<path fill-rule="evenodd" clip-rule="evenodd" d="M35.6044 26.8677C39.0095 26.1525 41.5663 23.1319 41.5663 19.5141C41.5663 15.3642 38.2021 12 34.0522 12C29.9023 12 26.5381 15.3642 26.5381 19.5141C26.5381 23.1472 29.1166 26.1781 32.5434 26.8767C32.5415 26.9073 32.5406 26.9382 32.5406 26.9692V32.0203C32.5406 32.8673 33.2272 33.5539 34.0742 33.5539C34.9211 33.5539 35.6077 32.8673 35.6077 32.0203V26.9692C35.6077 26.9351 35.6066 26.9013 35.6044 26.8677Z"/>
</mask>
<path fill-rule="evenodd" clip-rule="evenodd" d="M35.6044 26.8677C39.0095 26.1525 41.5663 23.1319 41.5663 19.5141C41.5663 15.3642 38.2021 12 34.0522 12C29.9023 12 26.5381 15.3642 26.5381 19.5141C26.5381 23.1472 29.1166 26.1781 32.5434 26.8767C32.5415 26.9073 32.5406 26.9382 32.5406 26.9692V32.0203C32.5406 32.8673 33.2272 33.5539 34.0742 33.5539C34.9211 33.5539 35.6077 32.8673 35.6077 32.0203V26.9692C35.6077 26.9351 35.6066 26.9013 35.6044 26.8677Z" fill="#86C232"/>
<path d="M35.6044 26.8677L35.4605 26.1826L34.8663 26.3074L34.9059 26.9134L35.6044 26.8677ZM32.5434 26.8767L33.2421 26.9183L33.2782 26.3121L32.6832 26.1908L32.5434 26.8767ZM40.8663 19.5141C40.8663 22.794 38.5482 25.5341 35.4605 26.1826L35.7483 27.5527C39.4709 26.7709 42.2663 23.4697 42.2663 19.5141H40.8663ZM34.0522 12.7C37.8155 12.7 40.8663 15.7508 40.8663 19.5141H42.2663C42.2663 14.9776 38.5887 11.3 34.0522 11.3V12.7ZM27.2381 19.5141C27.2381 15.7508 30.2889 12.7 34.0522 12.7V11.3C29.5157 11.3 25.8381 14.9776 25.8381 19.5141H27.2381ZM32.6832 26.1908C29.5759 25.5574 27.2381 22.808 27.2381 19.5141H25.8381C25.8381 23.4865 28.6572 26.7989 32.4035 27.5626L32.6832 26.1908ZM33.2406 26.9692C33.2406 26.952 33.2411 26.935 33.2421 26.9183L31.8446 26.8351C31.8419 26.8795 31.8406 26.9243 31.8406 26.9692H33.2406ZM33.2406 32.0203V26.9692H31.8406V32.0203H33.2406ZM34.0742 32.8539C33.6138 32.8539 33.2406 32.4807 33.2406 32.0203H31.8406C31.8406 33.2539 32.8406 34.2539 34.0742 34.2539V32.8539ZM34.9077 32.0203C34.9077 32.4807 34.5345 32.8539 34.0742 32.8539V34.2539C35.3077 34.2539 36.3077 33.2539 36.3077 32.0203H34.9077ZM34.9077 26.9692V32.0203H36.3077V26.9692H34.9077ZM34.9059 26.9134C34.9071 26.9317 34.9077 26.9504 34.9077 26.9692H36.3077C36.3077 26.9199 36.3061 26.8708 36.3029 26.822L34.9059 26.9134Z" fill="white" mask="url(#path-6-outside-2_2497_9322)"/>
</svg>
