<svg width="24" height="24" viewBox="0 0 24 24" fill="#474B4F" xmlns="http://www.w3.org/2000/svg">
<path d="M23.6627 0.364431C23.3029 0.00485645 22.7031 -0.115002 22.2232 0.124715L0.630371 12.1105C0.15053 12.3502 -0.0893903 12.9495 0.03057 13.429C0.15053 14.0283 0.630371 14.3878 1.23017 14.3878H9.62739V22.7779C9.62739 23.3772 9.98727 23.7368 10.4671 23.9765C11.0669 24.0963 11.5468 23.7368 11.7867 23.3772L23.7827 1.80273C24.1426 1.3233 24.0226 0.724006 23.6627 0.364431ZM12.0266 18.1034V13.1893C12.0266 12.4701 11.5468 11.9907 10.827 11.9907H5.90862L19.824 4.31975L12.0266 18.1034Z" fill="#474B4F"/>
</svg>
