<svg width="24" height="24" viewBox="0 0 24 24" fill="#474B4F" xmlns="http://www.w3.org/2000/svg">
<path d="M22.5 4.02789H18V2.41677C18 1.98948 17.842 1.57969 17.5607 1.27755C17.2794 0.975406 16.8978 0.805664 16.5 0.805664C16.1022 0.805664 15.7206 0.975406 15.4393 1.27755C15.158 1.57969 15 1.98948 15 2.41677V4.02789H9V2.41677C9 1.98948 8.84196 1.57969 8.56066 1.27755C8.27936 0.975406 7.89782 0.805664 7.5 0.805664C7.10218 0.805664 6.72064 0.975406 6.43934 1.27755C6.15804 1.57969 6 1.98948 6 2.41677V4.02789H1.5C1.10218 4.02789 0.720644 4.19763 0.43934 4.49977C0.158035 4.80191 0 5.2117 0 5.639L0 21.7501C0 22.1774 0.158035 22.5872 0.43934 22.8893C0.720644 23.1915 1.10218 23.3612 1.5 23.3612H22.5C22.8978 23.3612 23.2794 23.1915 23.5607 22.8893C23.842 22.5872 24 22.1774 24 21.7501V5.639C24 5.2117 23.842 4.80191 23.5607 4.49977C23.2794 4.19763 22.8978 4.02789 22.5 4.02789ZM21 20.139H3V7.25011H6V8.86122C6 9.28851 6.15804 9.6983 6.43934 10.0004C6.72064 10.3026 7.10218 10.4723 7.5 10.4723C7.89782 10.4723 8.27936 10.3026 8.56066 10.0004C8.84196 9.6983 9 9.28851 9 8.86122V7.25011H15V8.86122C15 9.28851 15.158 9.6983 15.4393 10.0004C15.7206 10.3026 16.1022 10.4723 16.5 10.4723C16.8978 10.4723 17.2794 10.3026 17.5607 10.0004C17.842 9.6983 18 9.28851 18 8.86122V7.25011H21V20.139Z" fill="#474B4F"/>
</svg>
