<svg width="30" height="30" viewBox="0 0 30 30" fill="none" xmlns="http://www.w3.org/2000/svg">
<path d="M7.88192 27.2322C5.24122 26.2559 3.89991 23.345 4.88602 20.7306C5.87214 18.1161 8.81225 16.7882 11.453 17.7645C14.0937 18.7408 15.435 21.6516 14.4489 24.2661C13.4627 26.8805 10.5226 28.2085 7.88192 27.2322Z" fill="none" stroke="#6B6E70" stroke-width="3.5"/>
<path d="M4.64872 9.5744C2.63344 8.82933 1.60981 6.60788 2.36237 4.61265C3.11493 2.61743 5.3587 1.60398 7.37397 2.34905C9.38925 3.09412 10.4129 5.31557 9.66032 7.3108C8.90776 9.30603 6.66399 10.3195 4.64872 9.5744Z" fill="none" stroke="#6B6E70" stroke-width="3.5"/>
<path d="M23.9541 15.7829C22.3587 15.1931 21.5484 13.4345 22.1441 11.8551C22.7399 10.2756 24.5161 9.47335 26.1114 10.0632C27.7067 10.653 28.5171 12.4115 27.9213 13.991C27.3256 15.5704 25.5494 16.3727 23.9541 15.7829Z" fill="none" stroke="#6B6E70" stroke-width="3.5"/>
<path d="M22.1906 11.8865L9.64746 7.28711" stroke="#6B6E70" stroke-width="3.5"/>
<path d="M6.85107 10.655L7.82629 16.4481" stroke="#6B6E70" stroke-width="3.5"/>
<path d="M22.4546 14.5172L14.6528 19.3448" stroke="#6B6E70" stroke-width="3.5"/>
</svg>
