<svg width="17" height="28" viewBox="0 0 17 28" fill="none" xmlns="http://www.w3.org/2000/svg">
<path d="M16.0979 18.06C16.1399 19.7135 15.4193 21.3173 14.085 22.54C13.0836 23.418 11.7595 23.9917 10.3229 24.17V25.79C10.323 26.3693 10.0506 26.9254 9.56437 27.3387C9.07812 27.7521 8.41687 27.9895 7.72295 28V28C7.02069 28 6.3472 27.7672 5.85063 27.3527C5.35406 26.9383 5.07509 26.3761 5.07509 25.79V24C3.81621 23.6559 2.69359 23.0317 1.82803 22.1948C0.96247 21.3578 0.38673 20.3397 0.16276 19.25C0.0908475 19.0132 0.0802143 18.7663 0.131569 18.5257C0.182924 18.2852 0.295088 18.0565 0.460592 17.855C0.626097 17.6535 0.841143 17.4837 1.09141 17.357C1.34168 17.2302 1.62143 17.1494 1.91203 17.12C2.37467 17.0676 2.84472 17.1519 3.24076 17.3582C3.6368 17.5646 3.93391 17.8801 4.08064 18.25C4.28091 18.8152 4.61953 19.3396 5.07509 19.79C5.45001 20.1459 5.91605 20.4269 6.43869 20.6121C6.96132 20.7973 7.52718 20.882 8.09437 20.86C8.88119 20.8838 9.66181 20.7356 10.3588 20.43C10.5832 20.3275 10.7923 20.2033 10.9819 20.06C11.5723 19.6435 11.946 19.052 12.0242 18.41C12.1209 17.8863 12.0027 17.3506 11.6888 16.89C11.4133 16.5423 11.0275 16.2654 10.5745 16.09L10.3708 16C9.78373 15.79 8.63353 15.47 6.92021 15C6.22529 14.82 5.61424 14.64 5.07509 14.46C4.38444 14.2394 3.7318 13.9435 3.13412 13.58C2.31318 13.0505 1.6559 12.3647 1.21711 11.58C0.746303 10.7379 0.504885 9.81924 0.510218 8.89C0.489664 7.8403 0.803929 6.80492 1.4208 5.89C1.99361 5.02357 2.87207 4.32529 3.93686 3.89C4.30095 3.73344 4.68208 3.6062 5.07509 3.51V2.21C5.07509 1.62387 5.35406 1.06175 5.85063 0.647294C6.3472 0.232839 7.02069 0 7.72295 0V0C8.42521 0 9.0987 0.232839 9.59527 0.647294C10.0918 1.06175 10.3708 1.62387 10.3708 2.21V3.45C11.5167 3.6726 12.5711 4.14541 13.426 4.82C14.2701 5.51967 14.8706 6.39761 15.1633 7.36C15.2357 7.60499 15.243 7.86022 15.1847 8.10781C15.1264 8.35539 15.0039 8.58934 14.8258 8.79324C14.6477 8.99713 14.4183 9.16605 14.1538 9.28814C13.8892 9.41023 13.5958 9.48254 13.2942 9.5H13.1505C12.7133 9.52864 12.277 9.43514 11.9105 9.23419C11.5439 9.03324 11.2678 8.73627 11.1256 8.39C10.9769 7.98703 10.7139 7.61997 10.3588 7.32H10.2989C9.58405 6.85324 8.68866 6.62193 7.78286 6.67C6.88798 6.6226 5.99936 6.82295 5.25481 7.24C5.1855 7.28124 5.12128 7.32814 5.06311 7.38C4.84216 7.53795 4.66543 7.73444 4.54536 7.9556C4.42529 8.17676 4.36481 8.41721 4.36819 8.66C4.36804 8.90821 4.42974 9.15374 4.54937 9.38098C4.669 9.60822 4.84395 9.81221 5.06311 9.98L5.17094 10.06C6.30675 10.6561 7.56024 11.0793 8.87315 11.31C9.41231 11.44 9.90354 11.57 10.3588 11.71C11.3949 11.9777 12.3795 12.3683 13.2823 12.87C14.1871 13.4042 14.9064 14.1287 15.367 14.97C15.8731 15.9444 16.1224 16.9982 16.0979 18.06V18.06Z" fill="#86C232"/>
</svg>
