<svg width="24" height="22" viewBox="0 0 24 22" fill="none" xmlns="http://www.w3.org/2000/svg">
<path d="M11.9969 21.5C11.239 21.5 10.4811 21.2227 9.92531 20.6429L2.11903 12.8529C2.09377 12.8277 2.06851 12.8025 2.06851 12.8025C-0.710427 9.97899 -0.685164 5.41597 2.11903 2.61765C3.48324 1.2563 5.32744 0.5 7.24743 0.5C9.01585 0.5 10.6579 1.13025 11.9969 2.26471C13.3106 1.13025 14.9779 0.5 16.7463 0.5C18.6916 0.5 20.5105 1.2563 21.8747 2.61765C24.7042 5.44118 24.7042 10.0042 21.9 12.8277L21.8747 12.8529L14.0937 20.6429C13.5127 21.1975 12.7548 21.5 11.9969 21.5ZM3.91271 11.1891L11.6432 18.9034C11.82 19.0798 12.1485 19.0798 12.3253 18.9034L20.0811 11.1639C20.0811 11.1387 20.1063 11.1387 20.1316 11.1134L20.1569 11.0882C22.0011 9.22269 22.0011 6.19748 20.1316 4.33193C19.2221 3.42437 18.0095 2.92017 16.7463 2.92017C15.4832 2.92017 14.2706 3.42437 13.3611 4.30672L13.3358 4.33193C13.3106 4.35714 13.3106 4.35714 13.2853 4.38235L12.8811 4.81092C12.6537 5.03782 12.3253 5.18908 11.9969 5.18908C11.6685 5.18908 11.34 5.06303 11.1127 4.83613L10.6832 4.40756C10.6579 4.38235 10.6579 4.38235 10.6327 4.35714C9.72321 3.44958 8.53585 2.97059 7.24743 2.97059C5.95902 2.97059 4.74639 3.47479 3.86218 4.38235C1.99272 6.2479 1.99272 9.27311 3.86218 11.1387C3.86218 11.1387 3.86218 11.1387 3.88745 11.1639C3.88745 11.1387 3.91271 11.1639 3.91271 11.1891Z" fill="white"/>
</svg>
