<svg width="24" height="24" viewBox="0 0 24 24" fill="none" xmlns="http://www.w3.org/2000/svg">
<path d="M12 0C5.38393 0 0 5.38393 0 12C0 18.6161 5.38393 24 12 24C18.6161 24 24 18.6161 24 12C24 5.38393 18.6161 0 12 0ZM12 21.2143C6.91071 21.2143 2.78571 17.0893 2.78571 12C2.78571 6.91071 6.91071 2.78571 12 2.78571C17.0893 2.78571 21.2143 6.91071 21.2143 12C21.2143 17.0893 17.0893 21.2143 12 21.2143Z" fill="#474B4F"/>
<path d="M15.1878 10.607H13.3931V6.69632C13.3931 5.94632 12.7771 5.30347 12.0003 5.30347C11.2503 5.30347 10.6074 5.91954 10.6074 6.69632V11.9999C10.6074 12.7499 11.2235 13.3928 12.0003 13.3928H15.1878C15.9378 13.3928 16.5806 12.7767 16.5806 11.9999C16.5538 11.2499 15.9378 10.607 15.1878 10.607Z" fill="#474B4F"/>
</svg>
