<svg width="24" height="24" viewBox="0 0 24 24" fill="#474B4F" xmlns="http://www.w3.org/2000/svg">
<g clip-path="url(#clip0_8461_1308)">
<path d="M12 0C9.61386 0.00262044 7.32619 0.951674 5.63893 2.63893C3.95167 4.32619 3.00262 6.61386 3 9C3 17.127 10.7344 23.4082 11.0625 23.6719C11.3288 23.8843 11.6594 24 12 24C12.3406 24 12.6712 23.8843 12.9375 23.6719C13.2657 23.4082 21 17.127 21 9C20.9974 6.61386 20.0483 4.32619 18.3611 2.63893C16.6738 0.951674 14.3861 0.00262044 12 0V0ZM12 20.4873C10.1045 18.6768 6 14.16 6 9C6 7.4087 6.63214 5.88258 7.75736 4.75736C8.88258 3.63214 10.4087 3 12 3C13.5913 3 15.1174 3.63214 16.2426 4.75736C17.3679 5.88258 18 7.4087 18 9C18 14.16 13.8955 18.6768 12 20.4873Z" />
<path d="M12 6C11.4067 6 10.8266 6.17595 10.3333 6.50559C9.83994 6.83524 9.45543 7.30377 9.22836 7.85195C9.0013 8.40013 8.94189 9.00333 9.05765 9.58527C9.1734 10.1672 9.45912 10.7018 9.87868 11.1213C10.2982 11.5409 10.8328 11.8266 11.4147 11.9424C11.9967 12.0581 12.5999 11.9987 13.148 11.7716C13.6962 11.5446 14.1648 11.1601 14.4944 10.6667C14.8241 10.1734 15 9.59334 15 9C14.9989 8.20468 14.6825 7.44224 14.1201 6.87986C13.5578 6.31749 12.7953 6.00107 12 6Z" />
</g>
<defs>
<clipPath id="clip0_8461_1308">
<rect width="24" height="24" fill="white"/>
</clipPath>
</defs>
</svg>
