<svg width="20" height="24" viewBox="0 0 24 24" fill="#474B4F" xmlns="http://www.w3.org/2000/svg">
  <path fill-rule="evenodd" clip-rule="evenodd" d="M2 2c3 0 5 1 5 4-3 0-4-1-5-4Zm7 6 1-1c0-5-4-7-9-7L0 1c0 5 3 7 9 7ZM11 11c6 0 9-2 9-7l-1-1c-5 0-9 2-9 7l1 1Zm7-6c-1 3-2 4-5 4 0-3 2-4 5-4Z" fill="#474B4F"/>
  <path fill-rule="evenodd" clip-rule="evenodd" d="M8 8c2 2 3 6 1 11l1 1 1-1c2-5 1-10-2-13H8v2Z" fill="#474B4F"/>
  <path fill-rule="evenodd" clip-rule="evenodd" d="M11 23c0-5-3-11-7-11l-1 1c-2 6 1 11 7 11l1-1Zm-6-9c2 1 4 5 4 8-3-1-5-4-4-8Z" fill="#474B4F"/>
  <path fill-rule="evenodd" clip-rule="evenodd" d="M16 14c1 4-1 7-4 8 0-3 2-7 4-8Zm-7 9 1 1c7 0 10-5 7-11l-1-1c-4 0-7 6-7 11Z" fill="#474B4F"/>
</svg>