<svg width="36" height="36" viewBox="0 0 36 36" fill="none" xmlns="http://www.w3.org/2000/svg">
<path d="M29.8151 18.36C30.376 17.9694 30.8445 17.4608 31.1878 16.8698C31.531 16.2788 31.7407 15.6198 31.802 14.9391C31.8633 14.2584 31.7747 13.5725 31.5426 12.9297C31.3105 12.2869 30.9404 11.7028 30.4583 11.2183C29.9762 10.7338 29.3939 10.3608 28.7523 10.1255C28.1106 9.89017 27.4252 9.79823 26.7442 9.85615C26.0632 9.91407 25.4032 10.1204 24.8105 10.4607C24.2178 10.801 23.7069 11.267 23.3135 11.826C23.2775 10.4402 22.7016 9.12326 21.7087 8.15587C20.7158 7.18848 19.3844 6.64709 17.9981 6.64709C16.6119 6.64709 15.2804 7.18848 14.2875 8.15587C13.2946 9.12326 12.7188 10.4402 12.6827 11.826C12.2898 11.266 11.7788 10.7991 11.1859 10.4579C10.593 10.1168 9.93249 9.90977 9.25093 9.85146C8.56936 9.79315 7.8833 9.88496 7.24105 10.1204C6.59879 10.3559 6.01597 10.7293 5.5336 11.2143C5.05124 11.6994 4.68107 12.2842 4.44916 12.9278C4.21724 13.5713 4.12923 14.2579 4.1913 14.9391C4.25338 15.6203 4.46404 16.2797 4.80844 16.8707C5.15285 17.4617 5.62264 17.9701 6.18473 18.36C4.43712 18.9687 2.92563 20.1124 1.86473 21.6288C1.30088 22.4223 1.00112 23.3733 1.00793 24.3468V27.8855C1.00793 28.2675 1.15964 28.6337 1.42969 28.9038C1.69974 29.1738 2.06601 29.3256 2.44793 29.3256H33.5519C33.9338 29.3256 34.3001 29.1738 34.5702 28.9038C34.8402 28.6337 34.9919 28.2675 34.9919 27.8855V24.3468C34.9975 23.3773 34.6991 22.4306 34.1387 21.6396C33.0785 20.1186 31.5655 18.9709 29.8151 18.36ZM27.0791 12.78C27.4351 12.78 27.7831 12.8855 28.0792 13.0833C28.3752 13.2811 28.6059 13.5622 28.7421 13.8911C28.8783 14.22 28.914 14.5819 28.8445 14.9311C28.7751 15.2803 28.6037 15.601 28.3519 15.8527C28.1002 16.1045 27.7795 16.2759 27.4303 16.3454C27.0811 16.4148 26.7192 16.3792 26.3903 16.2429C26.0614 16.1067 25.7803 15.876 25.5825 15.58C25.3847 15.284 25.2791 14.936 25.2791 14.58C25.282 14.1044 25.4729 13.6494 25.8101 13.3141C26.1474 12.9789 26.6036 12.7907 27.0791 12.7908V12.78ZM22.4207 14.94C22.475 15.6155 22.6753 16.2711 23.0079 16.8616C23.3404 17.4521 23.7972 17.9633 24.3467 18.36C24.1571 18.4224 23.9699 18.4932 23.7851 18.5724C22.6394 17.749 21.3248 17.1907 19.9367 16.938C20.9466 16.5437 21.8128 15.852 22.4207 14.9544V14.94ZM17.9999 9.55435C18.4834 9.55435 18.956 9.69771 19.358 9.96631C19.7599 10.2349 20.0732 10.6167 20.2583 11.0633C20.4433 11.51 20.4917 12.0015 20.3974 12.4756C20.303 12.9498 20.0702 13.3853 19.7284 13.7272C19.3865 14.0691 18.951 14.3019 18.4768 14.3962C18.0026 14.4905 17.5112 14.4421 17.0645 14.2571C16.6178 14.0721 16.2361 13.7588 15.9675 13.3568C15.6989 12.9548 15.5555 12.4822 15.5555 11.9988C15.5565 11.3507 15.8143 10.7296 16.2725 10.2714C16.7307 9.81314 17.3519 9.5553 17.9999 9.55435ZM13.5791 14.9544C14.1854 15.856 15.0518 16.5516 16.0631 16.9488C14.675 17.2015 13.3605 17.7598 12.2147 18.5832C12.0311 18.5076 11.8547 18.4356 11.6531 18.3708C12.2022 17.9745 12.6587 17.4639 12.9913 16.874C13.3238 16.2842 13.5243 15.6292 13.5791 14.9544ZM8.92073 12.7944C9.27673 12.7944 9.62474 12.8999 9.92075 13.0977C10.2168 13.2955 10.4475 13.5766 10.5837 13.9055C10.7199 14.2344 10.7556 14.5963 10.6861 14.9455C10.6167 15.2947 10.4453 15.6154 10.1935 15.8671C9.94178 16.1189 9.62105 16.2903 9.27189 16.3598C8.92272 16.4292 8.5608 16.3936 8.2319 16.2573C7.90299 16.1211 7.62187 15.8904 7.42408 15.5944C7.22629 15.2984 7.12073 14.9504 7.12073 14.5944C7.12025 14.3577 7.16646 14.1232 7.25671 13.9044C7.34695 13.6856 7.47947 13.4868 7.64666 13.3192C7.81385 13.1517 8.01244 13.0188 8.23106 12.9281C8.44969 12.8374 8.68404 12.7908 8.92073 12.7908V12.7944ZM3.88073 24.3504C3.87666 23.9798 3.9887 23.6172 4.20113 23.3136C4.7193 22.5407 5.42093 21.9083 6.24328 21.473C7.06563 21.0376 7.98306 20.8128 8.91353 20.8188C9.23553 20.8194 9.55696 20.8459 9.87473 20.898C9.75953 21.0528 9.65153 21.204 9.55793 21.348C9.05166 22.1146 8.78361 23.014 8.78753 23.9328V26.4528H3.88793L3.88073 24.3504ZM22.5719 26.4492H11.6747V23.9292C11.6714 23.5769 11.7716 23.2314 11.9627 22.9356C12.6164 21.9297 13.511 21.1031 14.5654 20.5308C15.6197 19.9586 16.8003 19.6588 17.9999 19.6588C19.1995 19.6588 20.3801 19.9586 21.4345 20.5308C22.4888 21.1031 23.3835 21.9297 24.0371 22.9356C24.2283 23.2314 24.3284 23.5769 24.3251 23.9292V26.4492H22.5719ZM32.1047 26.4492H27.2051V23.9292C27.2098 23.0092 26.9417 22.1085 26.4347 21.3408C26.3411 21.2004 26.2367 21.0528 26.1215 20.898C26.4379 20.8435 26.7581 20.8146 27.0791 20.8116C28.0096 20.8056 28.927 21.0304 29.7494 21.4658C30.5717 21.9011 31.2734 22.5335 31.7915 23.3064C32.004 23.61 32.116 23.9726 32.1119 24.3432L32.1047 26.4492Z" fill="#6B6E70"/>
</svg>
