<svg width="16" height="22" viewBox="0 0 16 22" fill="none" xmlns="http://www.w3.org/2000/svg">
<path d="M12.7752 7.3593C14.5364 7.3593 16 5.82915 16 3.92965C16 2.03015 14.5612 0.5 12.7752 0.5C11.014 0.5 9.55039 2.03015 9.55039 3.92965C9.55039 4.40452 9.64961 4.85301 9.79845 5.24874L5.15969 8.41457C4.61395 7.99246 3.94419 7.72864 3.22481 7.72864C1.46357 7.72864 0 9.25879 0 11.1583C0 13.0578 1.43876 14.5879 3.22481 14.5879C3.94419 14.5879 4.61395 14.3241 5.15969 13.902L9.69922 17.0151C9.6 17.3317 9.55039 17.701 9.55039 18.0704C9.55039 19.9435 10.9891 21.5 12.7752 21.5C14.5364 21.5 16 19.9699 16 18.0704C16 16.1709 14.5612 14.6407 12.7752 14.6407C12.0558 14.6407 11.4109 14.8781 10.8899 15.3003L6.32558 12.1608C6.42481 11.8442 6.47442 11.5013 6.47442 11.1583C6.47442 10.8153 6.42481 10.4724 6.32558 10.1558L11.138 6.85804C11.6093 7.201 12.1798 7.3593 12.7752 7.3593Z" fill="#222629"/>
</svg>
