<svg width="22" height="26" viewBox="0 0 22 26" fill="none" xmlns="http://www.w3.org/2000/svg">
<path d="M19.8155 9.1061L20.5404 8.38122C21.1617 7.75993 21.1617 6.75317 20.5404 6.13188C19.9191 5.51059 18.9124 5.51059 18.2911 6.13188L17.5895 6.83344C16.2256 5.80522 14.6088 5.10304 12.8466 4.83486V3.66726H13.2231C14.1017 3.66726 14.8138 2.95513 14.8138 2.07655C14.8138 1.19797 14.1017 0.48584 13.2231 0.48584H9.28722C8.40864 0.48584 7.6965 1.19797 7.6965 2.07655C7.6965 2.95513 8.40864 3.66726 9.28722 3.66726H9.6649V4.83486C4.59939 5.60579 0.701172 9.97784 0.701172 15.2555C0.701172 21.0752 5.43597 25.81 11.2556 25.81C17.0753 25.81 21.8091 21.0755 21.8091 15.2555C21.8091 12.9601 21.0646 10.8399 19.8155 9.1061ZM11.2559 22.6289C7.19033 22.6289 3.88259 19.3208 3.88259 15.2555C3.88259 11.1902 7.19001 7.88282 11.2559 7.88282C15.3209 7.88282 18.628 11.1902 18.628 15.2555C18.628 19.3208 15.3209 22.6289 11.2559 22.6289Z" fill="#ffffff"/>
<path d="M15.337 15.2976L12.2514 14.4912V10.3559C12.2514 9.65314 11.6824 9.0835 10.979 9.0835C10.2762 9.0835 9.70654 9.65314 9.70654 10.3559V15.474C9.70654 16.053 10.0973 16.5589 10.6573 16.7057L14.6937 17.7607C14.8019 17.7881 14.9099 17.8018 15.0169 17.8018C15.5813 17.8018 16.0968 17.4228 16.2473 16.851C16.4244 16.1712 16.0168 15.4753 15.337 15.2976Z" fill="#ffffff"/>
</svg>
