<svg width="24" height="20" viewBox="0 0 24 20" fill="#474B4F" xmlns="http://www.w3.org/2000/svg">
<path d="M11.9997 0C5.27067 0 0 3.57816 0 8.14668V11.8533C0 16.4218 5.27067 20 11.9997 20C18.7288 20 24 16.4221 24 11.8536V8.14668C24 3.57816 18.7285 0 11.9997 0ZM11.9997 2.92665C17.6112 2.92665 21.5216 5.67758 21.5216 8.14668C21.5216 8.52959 21.4325 8.91251 21.2531 9.29542C20.3176 11.3218 16.8392 13.3724 11.9997 13.3724C11.6973 13.3724 11.4003 13.3642 11.1085 13.3488C6.73547 13.1161 3.62347 11.1942 2.7416 9.28251C2.56667 8.91377 2.4784 8.53085 2.4784 8.14636C2.4784 5.67726 6.3888 2.92665 11.9997 2.92665ZM11.9997 17.0737C7.83253 17.0737 4.604 15.5562 3.21787 13.7641C3.24053 13.7805 3.2648 13.7956 3.28773 13.8117C3.384 13.8797 3.48213 13.9468 3.58187 14.0126C3.62213 14.039 3.6624 14.0652 3.7032 14.0913C3.80587 14.1568 3.9104 14.221 4.01627 14.2843C4.0488 14.3035 4.08053 14.3234 4.11333 14.3426C4.252 14.4232 4.39333 14.5019 4.5376 14.5784C4.56267 14.5917 4.58853 14.6043 4.6136 14.6172C4.73333 14.6795 4.85493 14.7403 4.9784 14.7995C5.02427 14.8215 5.0704 14.8429 5.1168 14.8647C5.2272 14.916 5.3392 14.9664 5.45227 15.0152C5.4968 15.0344 5.5408 15.0539 5.5856 15.0728C5.74133 15.1383 5.89867 15.2019 6.05893 15.2627C6.05947 15.263 6.05973 15.263 6.06027 15.2633C6.2192 15.3232 6.3808 15.3802 6.54373 15.4353C6.5928 15.452 6.64267 15.4677 6.69227 15.4841C6.812 15.5231 6.93253 15.5609 7.0544 15.5974C7.10773 15.6135 7.1608 15.6292 7.2144 15.6447C7.3544 15.685 7.49547 15.7234 7.63813 15.7599C7.66907 15.7678 7.6992 15.7766 7.7304 15.7845C7.9032 15.8279 8.07787 15.8682 8.25413 15.9063C8.30107 15.9164 8.3488 15.9256 8.396 15.9353C8.52853 15.9627 8.6616 15.9889 8.796 16.0134C8.85493 16.0241 8.91413 16.0345 8.97333 16.0446C9.10853 16.0676 9.24453 16.089 9.3816 16.1091C9.43013 16.1164 9.4784 16.1239 9.52747 16.1309C9.71093 16.1561 9.89547 16.1791 10.0816 16.1986C10.1176 16.2024 10.1541 16.2052 10.1904 16.2087C10.3424 16.2238 10.4955 16.2373 10.6493 16.2486C10.7104 16.2531 10.7715 16.2568 10.8325 16.2609C10.9693 16.2697 11.1067 16.2767 11.2445 16.2823C11.3029 16.2849 11.3613 16.2874 11.42 16.2893C11.6125 16.2952 11.8056 16.2993 12 16.2993C12.1944 16.2993 12.3877 16.2952 12.5803 16.2893C12.6387 16.2874 12.6965 16.2845 12.7549 16.2823C12.8933 16.2767 13.0312 16.2694 13.1685 16.2609C13.2293 16.2571 13.2901 16.2534 13.3507 16.2486C13.5051 16.2373 13.6587 16.2238 13.8115 16.2087C13.8469 16.2052 13.8827 16.2024 13.9181 16.1986C14.1051 16.1787 14.2901 16.1561 14.4741 16.1306C14.5208 16.1239 14.5672 16.1167 14.6139 16.1098C14.7536 16.0893 14.8928 16.0676 15.0309 16.044C15.0875 16.0342 15.1435 16.0244 15.1997 16.014C15.3395 15.9885 15.4784 15.9615 15.616 15.9328C15.6576 15.924 15.6995 15.9161 15.7411 15.907C15.9211 15.8682 16.0995 15.8267 16.2757 15.7823C16.2952 15.7772 16.3144 15.7719 16.3341 15.7669C16.4904 15.7269 16.6448 15.6847 16.7979 15.6406C16.8413 15.628 16.8843 15.6151 16.9272 15.6025C17.0645 15.5615 17.2003 15.519 17.3349 15.4749C17.3701 15.4633 17.4059 15.452 17.4408 15.4403C17.7829 15.3251 18.1155 15.1994 18.4381 15.0631C18.4595 15.0539 18.4805 15.0448 18.5019 15.0357C18.6456 14.9743 18.7875 14.9103 18.9269 14.8448C18.9475 14.8351 18.9683 14.8256 18.9885 14.8159C19.4699 14.5866 19.9248 14.3334 20.3499 14.0585C20.3552 14.0551 20.3605 14.0516 20.3659 14.0481C20.5075 13.9562 20.6461 13.8624 20.7808 13.7657C19.3939 15.5571 16.1656 17.0737 11.9997 17.0737Z" />
</svg>
