<svg width="26" height="34" viewBox="0 0 26 34" fill="none" xmlns="http://www.w3.org/2000/svg">
<path d="M12.4481 0.640125C12.0761 0.740124 11.7241 0.928123 11.4601 1.16813C11.1401 1.46012 5.2401 8.36812 5.0681 8.64812C4.8601 8.99212 4.7921 9.23212 4.7721 9.70012C4.7401 10.3241 4.8921 10.7881 5.2681 11.2601C5.4361 11.4681 5.94009 11.8801 6.0881 11.9281C6.1121 11.9361 5.4841 12.7001 4.69209 13.6281C3.90009 14.5521 3.16409 15.4161 3.06009 15.5441C2.66409 16.0401 2.49609 16.5761 2.52809 17.2561C2.56009 17.9441 2.79609 18.4721 3.30009 18.9841C3.56409 19.2481 3.84009 19.4201 4.27209 19.5841C4.35609 19.6201 4.24809 19.7561 2.63209 21.6361C1.68009 22.7441 0.816094 23.7761 0.712094 23.9281C0.388094 24.4001 0.200094 25.1961 0.280094 25.7521C0.372094 26.3921 0.652094 26.9721 1.08009 27.4001C1.57209 27.8921 2.12809 28.1561 2.87209 28.2401C3.07209 28.2641 4.4121 28.2801 6.01209 28.2801H8.8001V29.8161C8.8001 31.5521 8.82409 31.7881 9.06009 32.2641C9.32409 32.8041 9.9161 33.2481 10.5521 33.3801C10.9441 33.4641 15.0561 33.4641 15.4521 33.3801C16.2561 33.2121 16.9121 32.5881 17.1481 31.7721C17.2041 31.5721 17.2121 31.3241 17.2041 29.8881L17.1961 28.2361L20.2281 28.2401C22.2481 28.2441 23.3241 28.2321 23.4481 28.2041C24.4041 27.9881 25.1881 27.3121 25.5521 26.4001C25.6921 26.0441 25.7321 25.7801 25.7121 25.2841C25.6961 24.8841 25.6761 24.7761 25.5641 24.4961C25.4961 24.3161 25.3681 24.0601 25.2801 23.9281C25.1961 23.7961 24.3641 22.8001 23.4321 21.7121C22.5001 20.6281 21.7161 19.7121 21.6921 19.6761C21.6481 19.6201 21.6761 19.6001 21.9121 19.5041C22.6161 19.2281 23.2201 18.5361 23.4161 17.7761C23.5601 17.2241 23.4641 16.4201 23.1961 15.9201C23.1201 15.7761 22.4561 14.9681 21.4721 13.8201C20.5921 12.7921 19.8801 11.9481 19.8881 11.9441C19.8961 11.9401 19.9841 11.8881 20.0881 11.8281C20.5281 11.5761 20.9281 11.0961 21.1161 10.6001C21.1961 10.3801 21.2121 10.2681 21.2161 9.84012C21.2201 9.25612 21.1401 8.96012 20.8801 8.56812C20.7961 8.44412 19.3561 6.74412 17.6841 4.79212C14.2201 0.748127 14.3081 0.836124 13.5321 0.636124C13.1521 0.540127 12.8241 0.544125 12.4481 0.640125ZM15.0241 6.55212L17.0281 8.90012L16.6601 8.92812C15.8881 8.98412 15.4201 9.28412 15.1281 9.91212C15.0321 10.1121 15.0201 10.1881 15.0201 10.5401C15.0201 11.1801 14.9561 11.0841 17.4161 13.9601C18.5921 15.3361 19.5561 16.4721 19.5601 16.4881C19.5601 16.5041 19.1761 16.5201 18.7121 16.5281L17.8601 16.5401L17.5961 16.6641C16.7561 17.0641 16.4201 18.0441 16.8441 18.8441C16.9161 18.9801 17.9641 20.2281 19.5201 22.0441C20.9281 23.6801 22.0801 25.0321 22.0801 25.0481C22.0801 25.0641 20.5361 25.0841 18.6521 25.0881L15.2201 25.1001L14.9881 25.2081C14.4961 25.4401 14.1161 25.9481 14.0401 26.4841C14.0201 26.6241 14.0001 27.5281 14.0001 28.4881V30.2401H13.0001H12.0001V28.3401C12.0001 26.5241 11.9961 26.4281 11.9161 26.1921C11.7681 25.7521 11.4761 25.4241 11.0401 25.2081L10.8201 25.1001L7.3721 25.0881C5.4721 25.0841 3.92009 25.0641 3.92009 25.0441C3.92009 25.0281 5.04009 23.7081 6.4081 22.1161C7.7721 20.5241 8.9521 19.1401 9.0241 19.0401C9.3961 18.5401 9.42809 17.8561 9.1081 17.3081C8.9641 17.0681 8.6361 16.7721 8.3681 16.6481C8.1481 16.5441 8.1081 16.5401 7.2681 16.5201L6.3921 16.5001L8.5001 14.0441C9.6561 12.6921 10.6601 11.5081 10.7281 11.4121C11.1641 10.7721 11.0641 9.93212 10.4841 9.38812C10.2881 9.20412 10.0001 9.03612 9.7801 8.98012C9.71609 8.96412 9.5001 8.94012 9.3041 8.92412L8.9481 8.90012L10.9641 6.54812C12.0721 5.25612 12.9881 4.20012 13.0001 4.20412C13.0121 4.20412 13.9201 5.26012 15.0241 6.55212Z" fill="#86C232"/>
</svg>
